HIERARCHY
ROOT Hips
{
	OFFSET 0.000000 0.000000 0.000000
	CHANNELS 6 Xposition Yposition Zposition Xrotation Yrotation Zrotation
	JOINT C_ctrl
	{
		OFFSET 0.000000 35.040482 -0.000011
		CHANNELS 3 Xrotation Yrotation Zrotation
		JOINT Bip01
		{
			OFFSET -41.537640 41.789009 -0.000007
			CHANNELS 3 Xrotation Yrotation Zrotation
			JOINT Bip01_Pelvis
			{
				OFFSET -2.462887 0.000000 0.000000
				CHANNELS 3 Xrotation Yrotation Zrotation
				JOINT BN_Tail_01
				{
					OFFSET -11.399368 7.351341 -0.000013
					CHANNELS 3 Xrotation Yrotation Zrotation
					JOINT BN_Tail_02
					{
						OFFSET -11.365196 -0.343025 0.000012
						CHANNELS 3 Xrotation Yrotation Zrotation
						JOINT BN_Tail_03
						{
							OFFSET -15.076256 -0.454979 0.000017
							CHANNELS 3 Xrotation Yrotation Zrotation
							JOINT BN_Tail_04
							{
								OFFSET -17.395691 -0.525002 0.000016
								CHANNELS 3 Xrotation Yrotation Zrotation
								JOINT BN_Tail_05
								{
									OFFSET -16.699837 -0.504005 0.000016
									CHANNELS 3 Xrotation Yrotation Zrotation
									End Site
									{
										OFFSET 0.503998 -16.699829 0.000067
									}
								}
							}
						}
					}
				}
				JOINT Bip01_Spine
				{
					OFFSET 8.297798 5.916809 -0.000020
					CHANNELS 3 Xrotation Yrotation Zrotation
					JOINT Bip01_R_Thigh
					{
						OFFSET -8.297779 -5.916794 10.541781
						CHANNELS 3 Xrotation Yrotation Zrotation
						JOINT Bip01_R_Calf
						{
							OFFSET 5.631542 -22.906792 0.862690
							CHANNELS 3 Xrotation Yrotation Zrotation
							JOINT Bip01_R_HorseLink
							{
								OFFSET -16.984341 -19.231926 -3.555767
								CHANNELS 3 Xrotation Yrotation Zrotation
								JOINT Bip01_R_Foot
								{
									OFFSET 4.290367 -24.783146 0.578056
									CHANNELS 3 Xrotation Yrotation Zrotation
									JOINT Bip01_R_Toe0
									{
										OFFSET 3.561211 -5.815116 0.760802
										CHANNELS 3 Xrotation Yrotation Zrotation
										JOINT Bip01_R_Toe0Nub
										{
											OFFSET 16.135469 0.002017 1.534789
											CHANNELS 3 Xrotation Yrotation Zrotation
											End Site
											{
												OFFSET -0.000002 16.208284 -0.000056
											}
										}
									}
								}
							}
						}
					}
					JOINT Bip01_L_Thigh
					{
						OFFSET -8.297813 -5.916832 -10.541739
						CHANNELS 3 Xrotation Yrotation Zrotation
						JOINT Bip01_L_Calf
						{
							OFFSET 5.631535 -22.906792 -0.862625
							CHANNELS 3 Xrotation Yrotation Zrotation
							JOINT Bip01_L_HorseLink
							{
								OFFSET -16.984318 -19.231949 3.555875
								CHANNELS 3 Xrotation Yrotation Zrotation
								JOINT Bip01_L_Foot
								{
									OFFSET 4.290367 -24.783169 -0.577965
									CHANNELS 3 Xrotation Yrotation Zrotation
									JOINT Bip01_L_Toe0
									{
										OFFSET 3.561245 -5.815111 -0.760799
										CHANNELS 3 Xrotation Yrotation Zrotation
										JOINT Bip01_L_Toe0Nub
										{
											OFFSET 6.574303 -0.000005 -1.538561
											CHANNELS 3 Xrotation Yrotation Zrotation
											End Site
											{
												OFFSET 0.000004 -6.751935 0.000023
											}
										}
									}
								}
							}
						}
					}
					JOINT Bip01_Spine1
					{
						OFFSET 20.556803 -4.626213 -0.000025
						CHANNELS 3 Xrotation Yrotation Zrotation
						JOINT Saddle
						{
							OFFSET 17.608810 18.174690 -0.000143
							CHANNELS 3 Xrotation Yrotation Zrotation
							End Site
							{
								OFFSET -0.000063 -0.000061 -22.448387
							}
						}
						JOINT BN_center
						{
							OFFSET 10.743275 -13.417107 -0.172041
							CHANNELS 3 Xrotation Yrotation Zrotation
							End Site
							{
								OFFSET 22.434088 0.553078 -0.579614
							}
						}
						JOINT Bip01_Spine2
						{
							OFFSET 24.765072 -2.054115 -0.000032
							CHANNELS 3 Xrotation Yrotation Zrotation
							JOINT Handle
							{
								OFFSET 63.735676 16.430748 -16.052464
								CHANNELS 3 Xrotation Yrotation Zrotation
								JOINT IK_Chain01
								{
									OFFSET -4.713058 -6.020439 0.185448
									CHANNELS 3 Xrotation Yrotation Zrotation
									End Site
									{
										OFFSET -0.000023 -0.000023 -7.648071
									}
								}
							}
							JOINT BN_hair04_01
							{
								OFFSET 1.987491 16.256981 -2.049672
								CHANNELS 3 Xrotation Yrotation Zrotation
								JOINT BN_hair04_02
								{
									OFFSET -1.318762 -3.831451 -6.174704
									CHANNELS 3 Xrotation Yrotation Zrotation
									JOINT BN_hair04_03
									{
										OFFSET -0.827490 -5.886627 -5.656666
										CHANNELS 3 Xrotation Yrotation Zrotation
										End Site
										{
											OFFSET -2.658262 5.010620 -5.929780
										}
									}
								}
							}
							JOINT Bip01_Neck
							{
								OFFSET 25.574577 9.433014 -0.000084
								CHANNELS 3 Xrotation Yrotation Zrotation
								JOINT Bip01_R_Clavicle
								{
									OFFSET -16.535652 0.011192 6.705692
									CHANNELS 3 Xrotation Yrotation Zrotation
									JOINT Bip01_R_UpperArm
									{
										OFFSET 20.272621 -12.959984 2.510816
										CHANNELS 3 Xrotation Yrotation Zrotation
										JOINT Bip01_R_Forearm
										{
											OFFSET -13.633509 -15.503704 -0.653585
											CHANNELS 3 Xrotation Yrotation Zrotation
											JOINT Bip01_R_Hand
											{
												OFFSET 2.580030 -27.804676 -1.136415
												CHANNELS 3 Xrotation Yrotation Zrotation
												JOINT Bip01_R_Finger0
												{
													OFFSET -0.281744 -19.659061 -0.398649
													CHANNELS 3 Xrotation Yrotation Zrotation
													JOINT Bip01_Xtra02
													{
														OFFSET 4.152210 -5.712314 0.433813
														CHANNELS 3 Xrotation Yrotation Zrotation
														JOINT Bip01_Xtra02Nub
														{
															OFFSET 15.457960 0.041654 0.507982
															CHANNELS 3 Xrotation Yrotation Zrotation
															End Site
															{
																OFFSET -15.421730 -0.157725 -1.163459
															}
														}
													}
													JOINT Bip01_R_Finger0Nub
													{
														OFFSET 8.362326 -9.718440 -0.143142
														CHANNELS 3 Xrotation Yrotation Zrotation
														End Site
														{
															OFFSET -1.213036 -0.198171 9.872291
														}
													}
												}
											}
										}
									}
								}
								JOINT Bip01_L_Clavicle
								{
									OFFSET -16.535673 0.011162 -6.705583
									CHANNELS 3 Xrotation Yrotation Zrotation
									JOINT Bip01_L_UpperArm
									{
										OFFSET 20.272615 -12.959999 -2.510836
										CHANNELS 3 Xrotation Yrotation Zrotation
										JOINT Bip01_L_Forearm
										{
											OFFSET -13.633495 -15.503681 0.653678
											CHANNELS 3 Xrotation Yrotation Zrotation
											JOINT Bip01_L_Hand
											{
												OFFSET 2.579988 -27.804686 1.136487
												CHANNELS 3 Xrotation Yrotation Zrotation
												JOINT Bip01_L_Finger0
												{
													OFFSET -0.281765 -19.659058 0.398696
													CHANNELS 3 Xrotation Yrotation Zrotation
													JOINT Bip01_Xtra01
													{
														OFFSET 4.083549 -5.738758 -0.666714
														CHANNELS 3 Xrotation Yrotation Zrotation
														JOINT Bip01_Xtra01Nub
														{
															OFFSET 6.758158 -0.395525 -0.023239
															CHANNELS 3 Xrotation Yrotation Zrotation
															End Site
															{
																OFFSET 6.764923 -0.254147 -0.029908
															}
														}
													}
													JOINT Bip01_L_Finger0Nub
													{
														OFFSET -0.012636 -9.629153 0.045740
														CHANNELS 3 Xrotation Yrotation Zrotation
														End Site
														{
															OFFSET 0.988407 0.004791 8.293357
														}
													}
												}
											}
										}
									}
								}
								JOINT BN_hair03_01
								{
									OFFSET -5.894140 16.270622 -2.498433
									CHANNELS 3 Xrotation Yrotation Zrotation
									JOINT BN_hair03_02
									{
										OFFSET -0.189278 -7.800507 -6.219162
										CHANNELS 3 Xrotation Yrotation Zrotation
										JOINT BN_hair03_03
										{
											OFFSET 0.612345 -10.844475 -3.370718
											CHANNELS 3 Xrotation Yrotation Zrotation
											End Site
											{
												OFFSET -2.273296 2.862007 -10.769416
											}
										}
									}
								}
								JOINT Bip01_Neck1
								{
									OFFSET 9.383755 11.908699 -0.000007
									CHANNELS 3 Xrotation Yrotation Zrotation
									JOINT BN_hair02_01
									{
										OFFSET 9.126320 18.808022 -1.420810
										CHANNELS 3 Xrotation Yrotation Zrotation
										JOINT BN_hair02_02
										{
											OFFSET 0.393478 -5.181091 -5.248574
											CHANNELS 3 Xrotation Yrotation Zrotation
											JOINT BN_hair02_03
											{
												OFFSET 0.762280 -8.167076 -0.230047
												CHANNELS 3 Xrotation Yrotation Zrotation
												End Site
												{
													OFFSET -0.025837 -1.251419 -8.109770
												}
											}
										}
									}
									JOINT Bip01_Head
									{
										OFFSET 14.266129 10.475403 -0.000008
										CHANNELS 3 Xrotation Yrotation Zrotation
										JOINT BN_Reins_01
										{
											OFFSET 18.547455 -15.740112 -0.000035
											CHANNELS 3 Xrotation Yrotation Zrotation
											JOINT BN_Reins_02
											{
												OFFSET -5.372810 -5.884506 0.000028
												CHANNELS 3 Xrotation Yrotation Zrotation
												JOINT BN_Reins_03
												{
													OFFSET -6.395866 -15.947449 0.000070
													CHANNELS 3 Xrotation Yrotation Zrotation
													JOINT BN_Halter_R_01
													{
														OFFSET -1.234055 -3.096100 7.096737
														CHANNELS 3 Xrotation Yrotation Zrotation
														End Site
														{
															OFFSET 10.514435 -4.176861 -0.000004
														}
													}
													JOINT BN_Halter_L_01
													{
														OFFSET -1.234062 -3.096146 -7.096726
														CHANNELS 3 Xrotation Yrotation Zrotation
														End Site
														{
															OFFSET -10.514435 4.176865 -0.000000
														}
													}
													JOINT BN_Reins_04
													{
														OFFSET -6.737644 -16.971684 0.000074
														CHANNELS 3 Xrotation Yrotation Zrotation
														JOINT BN_Halter_R_02
														{
															OFFSET -4.688869 -11.781956 7.096771
															CHANNELS 3 Xrotation Yrotation Zrotation
															End Site
															{
																OFFSET 14.669624 -5.827511 -0.000006
															}
														}
														JOINT BN_Halter_L_02
														{
															OFFSET -4.688892 -11.782017 -7.096693
															CHANNELS 3 Xrotation Yrotation Zrotation
															End Site
															{
																OFFSET -14.669624 5.827507 -0.000002
															}
														}
														JOINT BN_Reins_05
														{
															OFFSET -6.822578 -16.971161 0.000074
															CHANNELS 3 Xrotation Yrotation Zrotation
															JOINT BN_Reins_06
															{
																OFFSET -6.140354 -15.095148 0.000066
																CHANNELS 3 Xrotation Yrotation Zrotation
																End Site
																{
																	OFFSET -15.095150 6.140352 -0.000002
																}
															}
														}
													}
												}
											}
										}
										JOINT BN_hair01_01
										{
											OFFSET 8.957344 8.870956 0.112121
											CHANNELS 3 Xrotation Yrotation Zrotation
											JOINT BN_hair01_02
											{
												OFFSET 6.002075 -2.962952 -3.121264
												CHANNELS 3 Xrotation Yrotation Zrotation
												End Site
												{
													OFFSET 5.917702 3.813591 -2.232396
												}
											}
										}
										JOINT BN_Eyebrow_R
										{
											OFFSET 11.795959 -0.430496 4.449781
											CHANNELS 3 Xrotation Yrotation Zrotation
											JOINT Bip01_Xtra06Nub
											{
												OFFSET 2.936661 -0.262573 3.246701
												CHANNELS 3 Xrotation Yrotation Zrotation
												End Site
												{
													OFFSET 2.768745 0.208199 3.394807
												}
											}
										}
										JOINT BN_Eyebrow_L
										{
											OFFSET 11.586395 -0.445618 -4.441728
											CHANNELS 3 Xrotation Yrotation Zrotation
											JOINT Bip01_Xtra05Nub
											{
												OFFSET 3.244698 -0.349442 -4.416700
												CHANNELS 3 Xrotation Yrotation Zrotation
												End Site
												{
													OFFSET 3.053162 0.072495 -4.564033
												}
											}
										}
										JOINT Bip01_R_Ear_01
										{
											OFFSET 7.142960 7.567184 4.311657
											CHANNELS 3 Xrotation Yrotation Zrotation
											JOINT Bip01_Xtra04Nub
											{
												OFFSET 9.464531 9.264214 1.682953
												CHANNELS 3 Xrotation Yrotation Zrotation
												End Site
												{
													OFFSET 8.448181 10.159340 1.910823
												}
											}
										}
										JOINT Bip01__L_Ear_01
										{
											OFFSET 7.214943 7.717056 -4.356771
											CHANNELS 3 Xrotation Yrotation Zrotation
											JOINT Bip01_Xtra03Nub
											{
												OFFSET 9.230225 8.944366 -2.322746
												CHANNELS 3 Xrotation Yrotation Zrotation
												End Site
												{
													OFFSET 8.170288 9.841324 -2.643566
												}
											}
										}
										JOINT Bip01_Jaw
										{
											OFFSET 9.196068 -4.110695 -0.000013
											CHANNELS 3 Xrotation Yrotation Zrotation
											JOINT Bip01_Ponytail1Nub
											{
												OFFSET 10.976463 -21.082108 -0.000053
												CHANNELS 3 Xrotation Yrotation Zrotation
												End Site
												{
													OFFSET 11.247093 -20.938980 0.000113
												}
											}
										}
										JOINT Bip01_HeadNub
										{
											OFFSET 29.954575 -18.249489 -0.000063
											CHANNELS 3 Xrotation Yrotation Zrotation
											End Site
											{
												OFFSET -9.198448 -13.366348 0.000168
											}
										}
									}
								}
							}
						}
					}
				}
			}
		}
	}
}
MOTION
Frames: 4
Frame Time: 0.033333
0.000000 0.000000 0.000000 0.000008 0.000000 -0.000000 -0.000000 0.000000 -0.000000 -0.030074 -1.997924 -0.873232 0.003491 -0.000000 -0.000022 2.923936 -2.582788 35.620844 0.318489 -0.797048 20.866575 -0.587130 1.516027 17.811709 -0.970505 4.709808 11.557559 -0.274259 3.858913 4.359720 0.188866 0.989327 4.708705 -0.553824 11.332160 1.499097 0.710427 0.016569 -3.600301 1.817460 -0.046714 -9.218990 0.005664 -10.440015 7.765031 0.000729 -0.000019 -0.003715 0.000101 -0.000137 0.000004 -1.482033 -9.974827 -5.465484 0.137296 0.008364 0.696719 -2.612774 0.160109 -13.287723 0.324647 11.281693 14.325162 -0.000871 0.000007 -0.003712 0.008762 -0.000456 0.038597 0.119437 0.980783 -3.268229 0.917530 -0.020778 6.784383 -0.003572 -0.188672 0.020278 0.046627 0.968703 -2.738192 0.000078 -0.000112 -0.000056 -0.000045 -0.014955 0.015042 2.586094 0.486219 -0.860314 2.162856 0.324625 -0.693858 5.503384 0.833504 -1.788424 1.647461 -1.257478 -5.213287 0.138935 1.717664 6.348459 -5.504130 -4.790349 7.348339 0.012110 0.173973 -4.253295 7.829369 2.444211 -0.221271 -4.304853 4.320583 -2.303701 -0.004997 -0.003857 0.005722 -0.802196 0.160632 -0.479873 -0.804182 0.123473 -0.482645 -3.312806 0.806981 4.950341 4.736869 -0.552707 5.774722 -0.000524 -0.014428 -0.352240 -6.486397 2.302556 -1.749643 2.565140 -5.569913 -1.494711 -0.003803 0.003226 -0.002349 0.036607 0.063833 2.451881 -0.000913 0.100574 2.451955 3.753855 0.408857 -0.665001 0.180335 0.040145 -0.039225 0.361760 0.049969 -0.142500 -2.153292 1.227663 -6.809128 4.517392 0.450495 -0.104680 0.032883 0.001593 0.029282 1.110114 0.094907 -0.097122 -0.533802 0.201137 -5.651390 -0.000029 0.000324 33.480095 -0.441787 -0.458728 -72.796108 -0.000060 -0.000072 -21.993989 0.000020 -0.000008 -0.026807 0.000002 -0.000016 0.012745 -0.000096 -0.000109 -34.639871 0.000035 0.000015 0.015158 0.000025 -0.000010 0.012720 -0.000048 -0.000055 -24.223452 0.000013 -0.000013 -0.000046 1.146977 2.856929 2.039547 0.761005 -0.149094 1.574640 -12.810628 -1.803854 -16.140982 0.024189 -0.030023 11.786596 9.655031 0.978690 -14.662673 0.023209 -0.032307 11.715997 -0.003757 0.001478 -0.000274 0.050268 0.015095 11.755958 0.000900 -0.000263 -0.001567 0.050139 0.014762 11.743090 -0.000019 -0.000231 0.000058 -0.004503 -0.052581 11.750675 0.000072 -0.000033 11.750672 
0.000000 0.000000 0.000000 0.000008 0.000000 -0.000000 -0.000000 0.000000 -0.000000 -0.030074 -1.997924 -0.873232 0.053758 0.837095 -0.569352 2.689601 -2.271405 35.561639 1.010383 -2.643827 21.660567 -0.645931 1.373231 18.017380 -1.074547 4.588004 11.698863 -0.583297 3.513196 4.448083 0.141315 0.149767 5.182822 -0.388633 11.340244 0.658146 0.545175 0.016701 -2.763193 1.805247 -0.045420 -9.156780 0.008300 -10.439608 7.765802 0.000729 -0.000019 -0.003715 0.000101 -0.000137 0.000004 -1.549079 -9.972997 -5.792292 0.272983 0.018278 1.385819 -2.667606 0.170066 -13.569835 0.320225 11.281528 14.325963 -0.000871 0.000005 -0.003712 0.008762 -0.000457 0.038597 0.119425 0.980730 -3.176168 0.917530 -0.020778 6.784383 -0.003572 -0.188672 0.020278 0.046657 0.969058 -2.469840 0.000078 -0.000112 -0.000055 -0.000045 -0.014955 0.015042 2.722310 0.505879 -0.904052 2.242354 0.336355 -0.719144 4.842486 0.747458 -1.573373 1.658892 -1.269319 -4.919763 0.131433 1.724884 6.052429 -5.521677 -4.704857 6.205889 0.006092 0.109204 -2.667277 7.885590 2.339757 -1.661345 -4.180799 4.320549 -3.341882 -0.005298 -0.003852 0.005687 -0.802241 0.160631 -0.479877 -0.804182 0.123473 -0.482645 -3.317727 0.834018 4.655687 4.725209 -0.536906 6.217572 -0.004047 -0.081213 -1.982744 -6.516199 2.237761 -0.828296 2.565141 -5.569914 -1.494710 -0.003654 0.003254 -0.002353 0.036652 0.063833 2.451881 -0.000913 0.100573 2.451955 3.677694 0.345036 -0.581900 -0.024515 0.016369 0.003662 0.674982 0.087511 -0.177188 -2.154622 1.228536 -6.506704 4.880689 0.483884 -0.114063 0.110430 0.008890 0.027923 0.792871 0.065664 -0.091075 -0.855783 0.411502 -6.946833 -0.000030 0.000324 33.480095 -0.441787 -0.458728 -72.796102 -0.000060 -0.000072 -21.993989 0.000020 -0.000008 -0.026805 0.000002 -0.000016 0.012745 -0.000096 -0.000109 -34.639878 0.000035 0.000015 0.015165 0.000025 -0.000010 0.012718 -0.000048 -0.000055 -24.223449 0.000013 -0.000013 -0.000048 1.440327 2.749970 2.684194 0.448931 -0.420147 1.838508 -12.810629 -1.803852 -16.140977 0.024218 -0.030022 11.786630 9.655016 0.978658 -14.662668 0.023235 -0.032298 11.715959 -0.332506 0.171215 0.012382 0.050291 0.015134 11.755966 -0.327909 0.171782 0.013607 0.050160 0.014804 11.743082 -0.005045 -0.012196 0.043420 -0.004473 -0.052616 11.750677 0.000072 -0.000033 11.750677 
0.000000 0.000000 0.000000 0.000008 0.000000 -0.000000 -0.000000 0.000000 -0.000000 -0.030128 -1.997908 -0.873232 0.113735 1.763714 -1.192312 2.070728 -1.454451 35.485978 1.890407 -4.681550 22.375474 -0.414017 0.558987 18.416379 -1.215840 4.653969 11.827732 -0.920929 3.298556 4.512499 0.097008 -0.770849 5.718536 -0.229201 11.360030 -0.232457 0.367022 0.014136 -1.860631 1.797036 -0.044559 -9.114972 0.010290 -10.439311 7.766389 0.000729 -0.000020 -0.003715 0.000101 -0.000137 0.000004 -1.612871 -9.971891 -6.114537 0.416702 0.030569 2.116388 -2.732395 0.182188 -13.903502 0.315920 11.281379 14.326771 -0.000871 0.000006 -0.003712 0.008762 -0.000455 0.038597 0.119413 0.980677 -3.086571 0.917530 -0.020778 6.784381 -0.003572 -0.188671 0.020278 0.046336 0.965221 -2.169925 0.000078 -0.000112 -0.000056 -0.000045 -0.014955 0.015042 2.854898 0.524919 -0.946644 2.337559 0.350354 -0.749455 4.013783 0.636010 -1.304989 1.670384 -1.280294 -4.594811 0.127456 1.736073 5.726052 -5.526305 -4.471061 2.879589 -0.000289 -0.141185 3.442381 8.045830 1.947851 -6.661782 -3.851556 4.307421 -6.071098 -0.005091 -0.003939 0.005733 -0.802359 0.160631 -0.479886 -0.804181 0.123473 -0.482645 -3.331644 0.861334 4.334362 4.712084 -0.518914 6.778038 -0.010399 -0.157399 -3.846642 -6.548589 2.158918 0.174470 2.565141 -5.569913 -1.494711 -0.003656 0.003316 -0.002367 0.036770 0.063834 2.451880 -0.000913 0.100573 2.451955 3.603685 0.282771 -0.501184 -0.549661 -0.045582 0.104093 0.979837 0.123954 -0.211060 -2.151566 1.229943 -6.185244 5.272404 0.519823 -0.124391 0.257531 0.022742 0.025306 0.484139 0.037173 -0.085345 -1.195201 0.650067 -8.349230 -0.000029 0.000324 33.480102 -0.441787 -0.458728 -72.796108 -0.000060 -0.000072 -21.993988 0.000020 -0.000008 -0.026805 0.000002 -0.000016 0.012743 -0.000096 -0.000109 -34.639875 0.000036 0.000016 0.015163 0.000026 -0.000010 0.012720 -0.000048 -0.000054 -24.223455 0.000013 -0.000013 -0.000051 1.760407 2.645798 3.380098 -0.487451 -1.207897 2.516497 -12.810630 -1.803850 -16.140980 0.024287 -0.029992 11.786718 9.655035 0.978688 -14.662669 0.023302 -0.032282 11.715862 -0.681185 0.338711 0.038220 0.050348 0.015235 11.755985 -0.671768 0.347860 0.043795 0.050213 0.014907 11.743067 -0.009792 -0.023498 0.089752 -0.004398 -0.052707 11.750670 0.000072 -0.000033 11.750672 
0.000000 0.000000 0.000000 0.000008 0.000000 -0.000000 -0.000000 0.000000 -0.000000 -0.030238 -1.997877 -0.873253 0.190300 2.777842 -1.885807 1.122825 -0.200390 35.410180 2.812341 -6.739012 23.038185 0.078378 -0.862868 18.951209 -1.265580 4.426024 12.060940 -1.437065 3.643901 4.488024 0.062305 -1.785026 6.318566 -0.042905 11.361997 -1.190071 0.171107 0.008074 -0.867725 1.793499 -0.044187 -9.096958 0.016686 -10.438314 7.768265 0.000729 -0.000019 -0.003715 0.000101 -0.000137 0.000004 -1.677112 -9.970736 -6.450962 0.572988 0.046034 2.911785 -2.805710 0.196379 -14.281504 0.311527 11.281212 14.327568 -0.000871 0.000006 -0.003712 0.008762 -0.000456 0.038597 0.119408 0.980651 -2.995427 0.917530 -0.020778 6.784384 -0.003572 -0.188672 0.020278 0.046366 0.965576 -1.838216 0.000078 -0.000112 -0.000057 -0.000045 -0.014955 0.015042 2.990478 0.544294 -0.990205 2.449443 0.366762 -0.785113 2.316721 0.395481 -0.760031 1.686130 -1.289287 -4.231843 0.126369 1.745917 5.363087 -5.480118 -4.164265 -1.422748 0.035430 -0.489074 11.977043 8.220024 1.350556 -14.137923 -3.351950 4.260958 -10.268795 -0.004954 -0.003787 0.005741 -0.802189 0.160645 -0.479873 -0.804181 0.123472 -0.482645 -3.341403 0.893507 3.970342 4.695152 -0.494705 7.462655 -0.020715 -0.244352 -5.981523 -6.581653 2.078101 1.294812 2.565141 -5.569912 -1.494711 -0.003646 0.003411 -0.002370 0.036600 0.063819 2.451881 -0.000913 0.100574 2.451955 3.528195 0.219041 -0.418778 -1.353593 -0.146569 0.262828 1.288820 0.160822 -0.245607 -2.152690 1.229049 -5.838353 5.677744 0.556928 -0.135370 0.522516 0.047694 0.020480 0.159196 0.007155 -0.079480 -1.560510 0.921293 -9.883951 -0.000030 0.000324 33.480102 -0.441787 -0.458728 -72.796108 -0.000059 -0.000072 -21.993988 0.000020 -0.000008 -0.026803 0.000002 -0.000016 0.012749 -0.000096 -0.000109 -34.639875 0.000036 0.000015 0.015165 0.000025 -0.000010 0.012726 -0.000048 -0.000055 -24.223445 0.000013 -0.000013 -0.000051 2.093311 2.543615 4.100597 -1.544026 -2.119402 3.269103 -12.810628 -1.803833 -16.140994 0.024191 -0.030053 11.786597 9.655013 0.978663 -14.662678 0.023211 -0.032305 11.716010 -1.067155 0.515861 0.081251 0.050291 0.015075 11.755957 -1.050726 0.539434 0.091943 0.050124 0.014766 11.743103 -0.013975 -0.033456 0.155947 -0.004528 -0.052594 11.750677 0.000072 -0.000033 11.750669 
